<!-- @formatter:off -->
<svg xmlns="http://www.w3.org/2000/svg">
  <defs>
    <svg id="monitoring" t="1660658191555" class="icon" viewBox="0 0 1024 1024" version="1.1" xmlns="http://www.w3.org/2000/svg" p-id="2440" width="200" height="200">
      <path d="M599.28 550.325l-88.02-226.372-96.119 180.845-53.647-55.186-90.776 56.565 25.607 14.764 58.172-36.255 70.188 72.267 81.272-152.872 89.862 231.24 76.63-161.338 31.234 66.458 34.24-5.74L672.64 395.86z m267.893 175.414V256.672c0-17.551-13.084-31.741-29.245-31.741H187.113c-16.16 0-29.244 14.191-29.244 31.741v469.067H61.957v38.799c0 17.556 13.104 31.74 29.245 31.74h845.83c16.161 0 29.265-14.185 29.265-31.74v-38.799h-99.123z m-293.149 13.32h-119.8v-20.597h119.8v20.597z m232.98-51.886H218.059V290.367h588.945v396.806z m0 0z" p-id="2441"></path>
    </svg>
    <symbol id="app_registration" viewBox="0 0 24 24">
      <g>
        <rect fill="none" height="24" width="24" />
      </g>
      <g>
        <g>
          <rect height="4" width="4" x="10" y="4" />
          <rect height="4" width="4" x="4" y="16" />
          <rect height="4" width="4" x="4" y="10" />
          <rect height="4" width="4" x="4" y="4" />
          <rect height="4" width="4" x="16" y="4" />
          <polygon points="11,17.86 11,20 13.1,20 19.08,14.03 16.96,11.91" />
          <polygon points="14,12.03 14,10 10,10 10,14 12.03,14" />
          <path d="M20.85,11.56l-1.41-1.41c-0.2-0.2-0.51-0.2-0.71,0l-1.06,1.06l2.12,2.12l1.06-1.06C21.05,12.07,21.05,11.76,20.85,11.56z" />
        </g>
      </g>
    </symbol>
    <symbol id="dvr" viewBox="0 0 24 24">
      <path d="M0 0h24v24H0V0z" fill="none" />
      <path d="M21 3H3c-1.1 0-2 .9-2 2v12c0 1.1.9 2 2 2h5v2h8v-2h5c1.1 0 2-.9 2-2V5c0-1.1-.9-2-2-2zm0 14H3V5h18v12zm-2-9H8v2h11V8zm0 4H8v2h11v-2zM7 8H5v2h2V8zm0 4H5v2h2v-2z" />
    </symbol>
    <svg id="chip" xmlns="http://www.w3.org/2000/svg" fill="none" viewBox="0 0 24 24" stroke="currentColor">
      <path stroke-linecap="round" stroke-linejoin="round" stroke-width="2" d="M9 3v2m6-2v2M9 19v2m6-2v2M5 9H3m2 6H3m18-6h-2m2 6h-2M7 19h10a2 2 0 002-2V7a2 2 0 00-2-2H7a2 2 0 00-2 2v10a2 2 0 002 2zM9 9h6v6H9V9z" />
    </svg>
    <svg id="device-terminal" t="1660959402045" class="icon" viewBox="0 0 1034 1024" version="1.1" xmlns="http://www.w3.org/2000/svg" p-id="3003" width="200" height="200">
      <path d="M734.208 196.608c97.28 0 186.368 33.792 258.048 89.088V178.176c0-38.912-37.888-68.608-83.968-68.608H83.968c-47.104 0-83.968 29.696-83.968 68.608v353.28h324.608c38.912-190.464 207.872-334.848 409.6-334.848zM390.144 851.968H75.776c-20.48 0-37.888 14.336-37.888 30.72s17.408 30.72 37.888 30.72h366.592c-18.432-18.432-36.864-39.936-52.224-61.44zM317.44 593.92h-317.44v34.816c0 38.912 37.888 69.632 83.968 69.632h240.64c-5.12-26.624-8.192-55.296-8.192-83.968 0-6.144 1.024-13.312 1.024-20.48z" p-id="3004"></path>
      <path d="M980.992 614.4c0-34.816 21.504-64.512 53.248-76.8-7.168-28.672-18.432-56.32-33.792-80.896-30.72 13.312-66.56 8.192-91.136-16.384-24.576-24.576-30.72-61.44-16.384-91.136-24.576-14.336-52.224-26.624-80.896-33.792-12.288 30.72-41.984 53.248-76.8 53.248-34.816 0-64.512-21.504-76.8-53.248-28.672 7.168-56.32 18.432-80.896 33.792 13.312 30.72 8.192 66.56-16.384 91.136-24.576 24.576-61.44 30.72-91.136 16.384-15.36 24.576-26.624 52.224-33.792 80.896 30.72 12.288 53.248 41.984 53.248 76.8 0 34.816-21.504 64.512-53.248 76.8 7.168 28.672 18.432 56.32 33.792 80.896 30.72-13.312 66.56-8.192 91.136 16.384 24.576 24.576 30.72 61.44 16.384 91.136 24.576 14.336 52.224 26.624 80.896 33.792 12.288-30.72 41.984-53.248 76.8-53.248 34.816 0 64.512 21.504 76.8 53.248 28.672-7.168 56.32-18.432 80.896-33.792-13.312-30.72-8.192-66.56 16.384-91.136 24.576-24.576 61.44-30.72 91.136-16.384 15.36-24.576 26.624-52.224 33.792-80.896-30.72-12.288-53.248-41.984-53.248-76.8zM734.208 759.808C654.336 759.808 588.8 694.272 588.8 614.4c0-79.872 65.536-145.408 145.408-145.408 79.872 0 145.408 65.536 145.408 145.408 0 80.896-64.512 145.408-145.408 145.408z" p-id="3005"></path>
      <path d="M734.208 614.4m-74.752 0a74.752 74.752 0 1 0 149.504 0 74.752 74.752 0 1 0-149.504 0Z" p-id="3006"></path>
    </svg>
    <svg id="device-status" t="1660917633459" class="icon" viewBox="0 0 1024 1024" version="1.1" xmlns="http://www.w3.org/2000/svg" p-id="6509" width="200" height="200">
      <path d="M954.88 237.568c0-60.416-56.832-109.568-126.464-109.568H195.584c-70.144 0-126.464 49.152-126.464 109.568v548.352c0 60.416 56.832 109.568 126.464 109.568h632.832c70.144 0 126.464-49.152 126.464-109.568V237.568z m-803.84-28.16c11.776-10.24 28.16-16.384 45.056-15.872h632.832c34.816 0 63.488 14.336 63.488 44.544v246.784h-50.176l-54.272-47.104c-12.288-10.752-32.256-10.752-44.544 0-3.584 3.072-6.144 6.656-7.68 10.752l-38.912 101.888L604.16 390.144c-7.68-13.312-26.624-18.944-42.496-12.288-7.168 3.072-12.288 8.192-15.36 14.336l-92.16 199.68-101.376-307.2c-4.608-14.336-22.528-23.04-38.912-18.944-8.704 2.048-15.872 7.168-19.456 14.336l-117.76 204.288H133.12V247.808c-1.024-14.336 6.144-28.16 17.92-38.4z m725.504 611.84c-7.68 7.68-31.232 9.728-48.128 9.728H195.584c-16.896 0-32.768-5.632-45.056-15.872s-18.432-24.064-18.432-38.912v-236.544h63.488c11.776 0 23.04-5.632 28.16-15.36l90.112-156.16 104.448 316.416c3.584 11.264 15.36 19.456 28.672 19.968h1.536c12.8 0 24.576-6.656 29.184-17.408L578.56 468.992l95.232 164.864c7.68 13.312 26.624 18.944 42.496 12.288 7.68-3.072 13.312-8.704 15.872-15.872l47.104-122.368 27.136 23.552c6.144 5.12 13.824 8.192 22.528 8.192h62.976v236.544c0 14.336-9.728 40.448-14.336 44.544l-1.024 0.512z" p-id="6510"></path>
    </svg>
    <svg id="device-energy" t="1660918698426" class="icon" viewBox="0 0 1024 1024" version="1.1" xmlns="http://www.w3.org/2000/svg" p-id="15269" width="200" height="200">
      <path d="M499.2 387.584c-12.8 3.584-25.088 9.728-34.816 18.944L348.16 340.992c-13.312-7.68-30.72-2.56-38.4 10.752s-2.56 30.72 10.752 38.4L437.248 455.68c-2.048 11.776-1.536 24.064 1.536 35.84 12.288 45.056 58.88 72.192 103.936 59.904 45.056-12.288 72.192-58.88 59.904-103.936-11.264-45.056-58.368-72.192-103.424-59.904z m29.696 109.568c-15.36 4.096-31.232-5.12-35.328-20.48-2.048-7.168-1.024-14.848 2.56-20.992 3.584-6.656 9.728-12.288 17.92-14.336 15.36-4.096 31.232 5.12 35.328 20.48 3.584 15.36-5.632 31.232-20.48 35.328z" fill="" p-id="15270"></path>
      <path d="M511.488 884.224c-227.84 0-412.672-185.344-412.672-412.672 0-227.84 185.344-412.672 412.672-412.672 227.84 0 412.672 185.344 412.672 412.672 0 227.328-185.344 412.672-412.672 412.672z m0-766.976c-195.072 0-353.792 158.72-353.792 353.792s158.72 353.792 353.792 353.792c195.072 0 353.792-158.72 353.792-353.792s-158.72-353.792-353.792-353.792z" fill="" p-id="15271"></path>
      <path d="M256 601.6c7.168 12.288 3.072 28.16-9.216 34.816l-44.544 25.6c-12.288 7.168-28.16 3.072-34.816-9.216-7.168-12.288-3.072-28.16 9.216-34.816l44.544-25.6c12.288-7.168 28.16-3.072 34.816 9.216zM511.488 72.704c14.336 0 25.6 11.264 25.6 25.6v51.2c0 13.824-11.776 25.6-25.6 25.6s-25.6-11.264-25.6-25.6v-51.2c0-13.824 11.776-25.6 25.6-25.6zM858.112 652.288c-7.168 12.288-22.528 16.384-34.816 9.216l-44.544-25.6c-12.288-7.168-16.384-22.528-9.216-34.816 7.168-12.288 22.528-16.384 34.816-9.216l44.544 25.6c11.776 7.168 15.872 22.528 9.216 34.816zM769.024 339.968c-7.168-12.288-3.072-28.16 9.216-34.816l44.544-25.6c12.288-7.168 28.16-3.072 34.816 9.216 7.168 12.288 3.072 28.16-9.216 34.816l-44.544 25.6c-11.776 7.168-27.648 3.072-34.816-9.216zM167.424 289.28c7.168-12.288 22.528-16.384 34.816-9.216l44.544 25.6c12.288 7.168 16.384 22.528 9.216 34.816-7.168 12.288-22.528 16.384-34.816 9.216l-44.544-25.6c-11.776-7.168-16.384-22.528-9.216-34.816z" fill="" p-id="15272"></path>
    </svg>
    <svg id="line-chart" xmlns="http://www.w3.org/2000/svg" fill="none" viewBox="0 0 24 24" stroke="currentColor">
      <path stroke-linecap="round" stroke-linejoin="round" stroke-width="2" d="M7 12l3-3 3 3 4-4M8 21l4-4 4 4M3 4h18M4 4h16v12a1 1 0 01-1 1H5a1 1 0 01-1-1V4z" />
    </svg>
    <symbol id="list_alt" viewBox="0 0 24 24">
      <path d="M0 0h24v24H0z" fill="none" />
      <path d="M19 5v14H5V5h14m1.1-2H3.9c-.5 0-.9.4-.9.9v16.2c0 .4.4.9.9.9h16.2c.4 0 .9-.5.9-.9V3.9c0-.5-.5-.9-.9-.9zM11 7h6v2h-6V7zm0 4h6v2h-6v-2zm0 4h6v2h-6zM7 7h2v2H7zm0 4h2v2H7zm0 4h2v2H7z" />
    </symbol>
    <symbol id="view_list" viewBox="0 0 24 24">
      <path d="M0 0h24v24H0V0z" fill="none" opacity=".87" />
      <path d="M3 5v14h17V5H3zm4 2v2H5V7h2zm-2 6v-2h2v2H5zm0 2h2v2H5v-2zm13 2H9v-2h9v2zm0-4H9v-2h9v2zm0-4H9V7h9v2z" />
    </symbol>
    <symbol id="scan" viewBox="0 0 24 24">
      <rect fill="none" height="24" width="24" />
      <path d="M9.5,6.5v3h-3v-3H9.5 M11,5H5v6h6V5L11,5z M9.5,14.5v3h-3v-3H9.5 M11,13H5v6h6V13L11,13z M17.5,6.5v3h-3v-3H17.5 M19,5h-6v6 h6V5L19,5z M13,13h1.5v1.5H13V13z M14.5,14.5H16V16h-1.5V14.5z M16,13h1.5v1.5H16V13z M13,16h1.5v1.5H13V16z M14.5,17.5H16V19h-1.5 V17.5z M16,16h1.5v1.5H16V16z M17.5,14.5H19V16h-1.5V14.5z M17.5,17.5H19V19h-1.5V17.5z M22,7h-2V4h-3V2h5V7z M22,22v-5h-2v3h-3v2 H22z M2,22h5v-2H4v-3H2V22z M2,2v5h2V4h3V2H2z" />
    </symbol>
    <svg id="cash" xmlns="http://www.w3.org/2000/svg" fill="none" viewBox="0 0 24 24" stroke="currentColor">
      <path stroke-linecap="round" stroke-linejoin="round" stroke-width="2" d="M17 9V7a2 2 0 00-2-2H5a2 2 0 00-2 2v6a2 2 0 002 2h2m2 4h10a2 2 0 002-2v-6a2 2 0 00-2-2H9a2 2 0 00-2 2v6a2 2 0 002 2zm7-5a2 2 0 11-4 0 2 2 0 014 0z" />
    </svg>
    <symbol id="router" viewBox="0 0 24 24">
      <path d="M0 0h24v24H0V0zm0 0h24v24H0V0z" fill="none" />
      <path d="M16 4.2c1.5 0 3 .6 4.2 1.7l.8-.8C19.6 3.7 17.8 3 16 3s-3.6.7-5 2.1l.8.8C13 4.8 14.5 4.2 16 4.2zm-3.3 2.5l.8.8c.7-.7 1.6-1 2.5-1s1.8.3 2.5 1l.8-.8c-.9-.9-2.1-1.4-3.3-1.4s-2.4.5-3.3 1.4zM19 13h-2V9h-2v4H5c-1.1 0-2 .9-2 2v4c0 1.1.9 2 2 2h14c1.1 0 2-.9 2-2v-4c0-1.1-.9-2-2-2zm0 6H5v-4h14v4zM6 16h2v2H6zm3.5 0h2v2h-2zm3.5 0h2v2h-2z" />
    </symbol>
    <symbol id="timer" viewBox="0 0 24 24">
      <path d="M0 0h24v24H0V0z" fill="none" />
      <path d="M12 21c4.97 0 9-4.03 9-9s-4.03-9-9-9h-1v4h2V5.08c3.39.49 6 3.39 6 6.92 0 3.87-3.13 7-7 7s-7-3.13-7-7c0-1.68.59-3.22 1.58-4.42L12 13l1.41-1.41-6.8-6.8v.02C4.42 6.45 3 9.05 3 12c0 4.97 4.02 9 9 9z" />
      <circle cx="12" cy="17" r="1" />
      <circle cx="17" cy="12" r="1" />
      <circle cx="7" cy="12" r="1" />
    </symbol>
    <svg id="price" xmlns="http://www.w3.org/2000/svg" fill="none" viewBox="0 0 24 24" stroke="currentColor">
      <path stroke-linecap="round" stroke-linejoin="round" stroke-width="2" d="M9 8l3 5m0 0l3-5m-3 5v4m-3-5h6m-6 3h6m6-3a9 9 0 11-18 0 9 9 0 0118 0z" />
    </svg>
    <symbol id="price_change" viewBox="0 0 24 24">
      <g>
        <path d="M0,0h24v24H0V0z" fill="none" />
      </g>
      <g>
        <g>
          <path d="M8,17h2v-1h1c0.55,0,1-0.45,1-1v-3c0-0.55-0.45-1-1-1H8v-1h4V8h-2V7H8v1H7C6.45,8,6,8.45,6,9v3c0,0.55,0.45,1,1,1h3v1H6v2 h2V17z M20,4H4C2.89,4,2.01,4.89,2.01,6L2,18c0,1.11,0.89,2,2,2h16c1.11,0,2-0.89,2-2V6C22,4.89,21.11,4,20,4z M20,18H4V6h16V18z M14,10l2-2l2,2 M18,14.25l-2,2l-2-2" />
        </g>
      </g>
    </symbol>
    <svg id="cog" xmlns="http://www.w3.org/2000/svg" fill="none" viewBox="0 0 24 24" stroke="currentColor">
      <path stroke-linecap="round" stroke-linejoin="round" stroke-width="2" d="M10.325 4.317c.426-1.756 2.924-1.756 3.35 0a1.724 1.724 0 002.573 1.066c1.543-.94 3.31.826 2.37 2.37a1.724 1.724 0 001.065 2.572c1.756.426 1.756 2.924 0 3.35a1.724 1.724 0 00-1.066 2.573c.94 1.543-.826 3.31-2.37 2.37a1.724 1.724 0 00-2.572 1.065c-.426 1.756-2.924 1.756-3.35 0a1.724 1.724 0 00-2.573-1.066c-1.543.94-3.31-.826-2.37-2.37a1.724 1.724 0 00-1.065-2.572c-1.756-.426-1.756-2.924 0-3.35a1.724 1.724 0 001.066-2.573c-.94-1.543.826-3.31 2.37-2.37.996.608 2.296.07 2.572-1.065z" />
      <path stroke-linecap="round" stroke-linejoin="round" stroke-width="2" d="M15 12a3 3 0 11-6 0 3 3 0 016 0z" />
    </svg>
    <symbol id="organizations" viewBox="0 0 24 24">
      <rect fill="none" height="24" width="24" />
      <path d="M22,11V3h-7v3H9V3H2v8h7V8h2v10h4v3h7v-8h-7v3h-2V8h2v3H22z M7,9H4V5h3V9z M17,15h3v4h-3V15z M17,5h3v4h-3V5z" />
    </symbol>
    <svg id="departments" xmlns="http://www.w3.org/2000/svg" fill="none" viewBox="0 0 24 24" stroke="currentColor">
      <path stroke-linecap="round" stroke-linejoin="round" stroke-width="2" d="M17 20h5v-2a3 3 0 00-5.356-1.857M17 20H7m10 0v-2c0-.656-.126-1.283-.356-1.857M7 20H2v-2a3 3 0 015.356-1.857M7 20v-2c0-.656.126-1.283.356-1.857m0 0a5.002 5.002 0 019.288 0M15 7a3 3 0 11-6 0 3 3 0 016 0zm6 3a2 2 0 11-4 0 2 2 0 014 0zM7 10a2 2 0 11-4 0 2 2 0 014 0z" />
    </svg>
    <svg id="user-groups" xmlns="http://www.w3.org/2000/svg" fill="none" viewBox="0 0 24 24" stroke="currentColor">
      <path stroke-linecap="round" stroke-linejoin="round" stroke-width="2" d="M12 4.354a4 4 0 110 5.292M15 21H3v-1a6 6 0 0112 0v1zm0 0h6v-1a6 6 0 00-9-5.197M13 7a4 4 0 11-8 0 4 4 0 018 0z" />
    </svg>
    <svg id="users" xmlns="http://www.w3.org/2000/svg" fill="none" viewBox="0 0 24 24" stroke="currentColor">
      <path stroke-linecap="round" stroke-linejoin="round" stroke-width="2" d="M16 7a4 4 0 11-8 0 4 4 0 018 0zM12 14a7 7 0 00-7 7h14a7 7 0 00-7-7z" />
    </svg>
    <symbol id="roles" viewBox="0 0 24 24">
      <g>
        <path d="M0,0h24v24H0V0z" fill="none" />
      </g>
      <g>
        <g>
          <path d="M4,18v-0.65c0-0.34,0.16-0.66,0.41-0.81C6.1,15.53,8.03,15,10,15c0.03,0,0.05,0,0.08,0.01c0.1-0.7,0.3-1.37,0.59-1.98 C10.45,13.01,10.23,13,10,13c-2.42,0-4.68,0.67-6.61,1.82C2.51,15.34,2,16.32,2,17.35V20h9.26c-0.42-0.6-0.75-1.28-0.97-2H4z" />
          <path d="M10,12c2.21,0,4-1.79,4-4s-1.79-4-4-4C7.79,4,6,5.79,6,8S7.79,12,10,12z M10,6c1.1,0,2,0.9,2,2s-0.9,2-2,2 c-1.1,0-2-0.9-2-2S8.9,6,10,6z" />
          <path d="M20.75,16c0-0.22-0.03-0.42-0.06-0.63l1.14-1.01l-1-1.73l-1.45,0.49c-0.32-0.27-0.68-0.48-1.08-0.63L18,11h-2l-0.3,1.49 c-0.4,0.15-0.76,0.36-1.08,0.63l-1.45-0.49l-1,1.73l1.14,1.01c-0.03,0.21-0.06,0.41-0.06,0.63s0.03,0.42,0.06,0.63l-1.14,1.01 l1,1.73l1.45-0.49c0.32,0.27,0.68,0.48,1.08,0.63L16,21h2l0.3-1.49c0.4-0.15,0.76-0.36,1.08-0.63l1.45,0.49l1-1.73l-1.14-1.01 C20.72,16.42,20.75,16.22,20.75,16z M17,18c-1.1,0-2-0.9-2-2s0.9-2,2-2s2,0.9,2,2S18.1,18,17,18z" />
        </g>
      </g>
    </symbol>
    <svg id="permissions" xmlns="http://www.w3.org/2000/svg" fill="none" viewBox="0 0 24 24" stroke="currentColor">
      <path stroke-linecap="round" stroke-linejoin="round" stroke-width="2" d="M9 12l2 2 4-4m5.618-4.016A11.955 11.955 0 0112 2.944a11.955 11.955 0 01-8.618 3.04A12.02 12.02 0 003 9c0 5.591 3.824 10.29 9 11.622 5.176-1.332 9-6.03 9-11.622 0-1.042-.133-2.052-.382-3.016z" />
    </svg>
    <svg id="structure" t="1681402581136" class="icon" viewBox="0 0 1024 1024" version="1.1" xmlns="http://www.w3.org/2000/svg" p-id="8324" width="200" height="200">
      <path d="M924.95 594.07h-109.2v-96.54H539.47v-67.6h120.51c23.29 0 35.05-11.76 35.05-35.05v-279.9c0-23.29-11.76-35.05-35.05-35.05h-279.9c-23.29 0-35.05 11.76-35.05 35.05v279.9c0 23.29 11.76 35.05 35.05 35.05H499.9v67.6H224.3v96.54H99.05c-23.29 0-35.05 11.76-35.05 35.05v279.9c0 23.29 11.76 35.05 35.05 35.05h279.9c23.29 0 35.05-11.76 35.05-35.05v-279.9c0-23.29-11.76-35.05-35.05-35.05H263.41v-61.95h513.45v61.95H645.05c-23.29 0-35.05 11.76-35.05 35.05v279.9c0 23.29 11.76 35.05 35.05 35.05h279.9c23.29 0 35.05-11.76 35.05-35.05v-279.9c0-23.29-11.76-35.05-35.05-35.05z" p-id="8325"></path>
    </svg>
    <symbol id="lock" viewBox="0 0 24 24">
      <g fill="none">
        <path d="M0 0h24v24H0V0z" />
        <path d="M0 0h24v24H0V0z" opacity=".87" />
      </g>
      <path d="M18 8h-1V6c0-2.76-2.24-5-5-5S7 3.24 7 6v2H6c-1.1 0-2 .9-2 2v10c0 1.1.9 2 2 2h12c1.1 0 2-.9 2-2V10c0-1.1-.9-2-2-2zM9 6c0-1.66 1.34-3 3-3s3 1.34 3 3v2H9V6zm9 14H6V10h12v10zm-6-3c1.1 0 2-.9 2-2s-.9-2-2-2-2 .9-2 2 .9 2 2 2z" />
    </symbol>
    <svg id="menu" xmlns="http://www.w3.org/2000/svg" fill="none" viewBox="0 0 24 24" stroke="currentColor">
      <path stroke-linecap="round" stroke-linejoin="round" stroke-width="2" d="M4 6h16M4 12h16M4 18h16" />
    </svg>
    <symbol id="settings_ethernet" viewBox="0 0 24 24">
      <path d="M0 0h24v24H0V0z" fill="none" />
      <path d="M7.77 6.76L6.23 5.48.82 12l5.41 6.52 1.54-1.28L3.42 12l4.35-5.24zM7 13h2v-2H7v2zm10-2h-2v2h2v-2zm-6 2h2v-2h-2v2zm6.77-7.52l-1.54 1.28L20.58 12l-4.35 5.24 1.54 1.28L23.18 12l-5.41-6.52z" />
    </symbol>
    <svg id="telemetry" xmlns:rdf="http://www.w3.org/1999/02/22-rdf-syntax-ns#" xmlns="http://www.w3.org/2000/svg" height="320" width="320" version="1.1" xmlns:cc="http://creativecommons.org/ns#" xmlns:dc="http://purl.org/dc/elements/1.1/" viewBox="0 0 320 320.00001">
      <g id="layer1" transform="translate(0 -732.36)" stroke-width="28">
        <g id="g5175-6-32" transform="matrix(1.0471 1.0606 -1.0484 1.0619 931.69 -208.55)"></g>
        <g id="g4241">
          <path id="path4278" style="color-rendering:auto;isolation:auto;mix-blend-mode:normal;shape-rendering:auto;block-progression:tb;text-decoration-line:none;text-decoration-style:solid;image-rendering:auto;white-space:normal;text-indent:0;text-transform:none" d="m151.13 732.36c-28.363 0-54.915 7.9153-77.613 21.537-6.4723-5.2623-14.605-8.1915-23.067-8.1937a8.7661 8.7661 0 0 0 -0.0035 0c-20.154 0.00073-36.679 16.528-36.678 36.682a8.7661 8.7661 0 0 0 0 0.0106c0.0099 8.4147 2.9267 16.483 8.1033 22.927-13.83 22.83-21.87 49.58-21.87 78.17a8.7661 8.7661 0 1 0 17.531 0c0-24.702 6.7193-47.748 18.378-67.574 4.5663 1.9846 9.4727 3.1496 14.519 3.1573a8.7661 8.7661 0 0 0 0.01241 0c20.155 0.00062 36.683-16.527 36.682-36.682a8.7661 8.7661 0 0 0 0 -0.004c-0.0016-4.9994-1.1387-9.8628-3.0828-14.397 19.717-11.484 42.585-18.095 67.085-18.095a8.7661 8.7661 0 1 0 0 -17.531zm-100.69 30.88c5.9129 0.002 11.191 2.5121 14.836 7.0769a8.7661 8.7661 0 0 0 0.1826 0.21451c2.6715 3.3798 4.1326 7.5531 4.1341 11.863-0.0015 10.677-8.468 19.144-19.144 19.148-4.37-0.008-8.6011-1.5088-12-4.2546a8.7661 8.7661 0 0 0 -0.01241 -0.009c-4.514-3.6331-7.1358-9.0979-7.1442-14.893 0.0025-10.677 8.4701-19.144 19.148-19.146z" />
          <path id="path4486-0-9-6-9-7-6-5" style="color-rendering:auto;isolation:auto;mix-blend-mode:normal;shape-rendering:auto;block-progression:tb;text-decoration-line:none;text-decoration-style:solid;image-rendering:auto;white-space:normal;text-indent:0;text-transform:none" d="m66.992 835.19c-1.492 1.5583-2.3663 3.7103-2.2576 6.0713 0.0962 2.0447 0.91322 4.0204 2.3372 5.5177 6.8051 6.8559 20.223 20.223 20.223 20.223l11.844-11.83s-12.973-12.961-20.176-20.171c-1.604-1.6325-3.7498-2.3141-6.012-2.3243-2.3583-0.0112-4.4673 0.95389-5.9592 2.5122zm32.147 19.983-36.639 36.639c-3.9751 3.976-3.9751 10.421 0 14.397l18.156 18.156 31.753 31.753 30.478 30.478c3.9758 3.9759 10.422 3.9763 14.398 0l24.791-24.791 37.914-37.914 36.639-36.639c3.9754-3.9764 3.975-10.422-0.00067-14.398l-18.63-18.63-31.75-31.76-30.01-30c-3.976-3.9751-10.421-3.9751-14.397 0l-24.79 24.79-37.91 37.91zm37.911-37.91s-12.973-12.961-20.176-20.171c-1.604-1.6325-3.7498-2.3141-6.012-2.3243-4.7166-0.0226-8.4341 3.8616-8.2169 8.5834 0.0962 2.0447 0.91322 4.0204 2.3372 5.5177 6.8051 6.8559 20.223 20.223 20.223 20.223l11.844-11.83zm69.193 5.2132s12.961-12.973 20.171-20.176c1.6325-1.604 2.3141-3.7498 2.3243-6.012 0.0225-4.7166-3.8616-8.4341-8.5834-8.2169-2.0447 0.0962-4.0204 0.91322-5.5177 2.3372-6.8559 6.8051-20.223 20.223-20.223 20.223l11.83 11.844zm31.753 31.753s12.961-12.973 20.171-20.176c1.6325-1.604 2.314-3.7498 2.3243-6.012 0.0225-4.7166-3.8616-8.4341-8.5834-8.2169-2.0447 0.0962-4.0204 0.91323-5.5177 2.3372-6.8559 6.8051-20.223 20.223-20.223 20.223l11.83 11.844zm-18.009 69.667s12.973 12.961 20.178 20.169c1.604 1.6324 3.7498 2.314 6.012 2.3243 4.7166 0.0225 8.4342-3.8615 8.2169-8.5834l-0.002 0.002c-0.0962-2.0447-0.91415-4.0214-2.3382-5.5186-6.8051-6.8559-20.222-20.222-20.222-20.222l-11.844 11.83zm-37.914 37.914s12.973 12.961 20.178 20.169c1.604 1.6324 3.7498 2.314 6.012 2.3242 4.7166 0.023 8.4342-3.8615 8.2169-8.5834h-0.002c-0.0962-2.0447-0.91323-4.0205-2.3372-5.5177-6.8051-6.8559-20.223-20.223-20.223-20.223l-11.844 11.83zm-69.667-5.6871s-12.961 12.973-20.169 20.178c-1.6324 1.604-2.314 3.7498-2.3243 6.012-0.02251 4.7166 3.8615 8.4342 8.5834 8.2169h-0.0019c2.0447-0.096 4.0204-0.9132 5.5177-2.3373 6.8561-6.8048 20.223-20.223 20.223-20.223l-11.82-11.84zm-31.743-31.74s-12.961 12.973-20.169 20.178c-1.6324 1.604-2.314 3.7498-2.3243 6.012-0.02251 4.7167 3.8615 8.4342 8.5834 8.2169h-0.0019c2.0447-0.0962 4.0204-0.91322 5.5177-2.3372 6.8561-6.8047 20.223-20.223 20.223-20.223l-11.829-11.85zm87.237-90.554c1.6794-1.7064 3.9669-2.6599 6.2971-2.626 1.6628 0.0237 3.253 0.55012 4.5625 1.5097l16.499 12.1c3.2009 2.297 4.1445 6.6589 2.2308 10.312-1.9137 3.6528-6.1234 5.5243-9.9506 4.4227l6.124 23.948c1.1128 4.3517-1.564 8.9677-5.9833 10.317l-44.642 13.631 8.2456 31.883c1.1728 4.3696-1.5017 9.0445-5.9546 10.407s-8.9756-1.1106-10.068-5.5047l-10.282-39.769c-1.1265-4.3556 1.5493-8.9847 5.9759-10.338l44.661-13.637-4.1219-16.118c-2.7634 3.0643-7.2335 3.8084-10.586 1.7615-3.3531-2.0469-4.6144-6.2896-2.9861-10.047l8.1169-19.454c0.43322-1.0376 1.0673-1.9888 1.8624-2.7973z" fill-rule="evenodd" />
          <path id="path4278-5" style="color-rendering:auto;isolation:auto;mix-blend-mode:normal;shape-rendering:auto;block-progression:tb;text-decoration-line:none;text-decoration-style:solid;image-rendering:auto;white-space:normal;text-indent:0;text-transform:none" d="m168.87 1052.4c28.363 0 54.915-7.9155 77.614-21.538 6.4724 5.2624 14.605 8.1917 23.067 8.1939a8.7662 8.7662 0 0 0 0.004 0c20.155-0.0007 36.68-16.528 36.679-36.682a8.7662 8.7662 0 0 0 0 -0.011c-0.01-8.4149-2.9267-16.484-8.1034-22.927 13.825-22.82 21.866-49.572 21.866-78.162a8.7662 8.7662 0 1 0 -17.531 0c0 24.703-6.7194 47.749-18.378 67.575-4.5664-1.9846-9.4728-3.1496-14.519-3.1573a8.7662 8.7662 0 0 0 -0.0124 0c-20.155-0.00062-36.683 16.527-36.682 36.682 0.002 4.9994 1.1387 9.8628 3.0829 14.397-19.717 11.484-42.586 18.095-67.086 18.095a8.7662 8.7662 0 1 0 0 17.531zm100.69-30.875c-5.913 0-11.191-2.5122-14.836-7.0769a8.7662 8.7662 0 0 0 -0.18261 -0.2146c-2.6715-3.3799-4.1327-7.5531-4.1341-11.863 0.002-10.677 8.4681-19.144 19.144-19.148 4.37 0.008 8.6012 1.5088 12 4.2547a8.7662 8.7662 0 0 0 0.0124 0.009c4.5141 3.6332 7.1359 9.098 7.1443 14.893-0.003 10.677-8.4702 19.145-19.148 19.146z" />
        </g>
      </g>
    </svg>

  </defs>
</svg>
